<?xml version="1.0" encoding="utf-8"?>
<!-- Generator: Adobe Illustrator 25.2.0, SVG Export Plug-In . SVG Version: 6.00 Build 0)  -->
<svg version="1.1" id="Layer_1" xmlns="http://www.w3.org/2000/svg" xmlns:xlink="http://www.w3.org/1999/xlink" x="0px" y="0px"
	 viewBox="0 0 1366 768" style="enable-background:new 0 0 1366 768;" xml:space="preserve">
<style type="text/css">
	.st0{fill:#FCF7F5;}
	.st1{fill:url(#SVGID_1_);}
	.st2{fill:#2F2836;}
	.st3{fill:url(#SVGID_2_);}
	.st4{fill:url(#SVGID_3_);}
	.st5{fill:url(#SVGID_4_);}
	.st6{fill:url(#SVGID_5_);}
	.st7{fill:url(#SVGID_6_);}
	.st8{fill:#165B93;}
	.st9{fill:url(#SVGID_7_);}
	.st10{fill:#2C71B5;}
	.st11{fill:url(#SVGID_8_);}
	.st12{fill:url(#SVGID_9_);}
	.st13{fill:url(#SVGID_10_);}
	.st14{fill:url(#SVGID_11_);}
	.st15{fill:url(#SVGID_12_);}
	.st16{fill:url(#SVGID_13_);}
	.st17{fill:url(#SVGID_14_);}
	.st18{fill:url(#SVGID_15_);}
	.st19{fill:url(#SVGID_16_);}
	.st20{fill:url(#SVGID_17_);}
	.st21{fill:url(#SVGID_18_);}
	.st22{fill:url(#SVGID_19_);}
	.st23{fill:#FFFFFF;}
	.st24{fill:#EC4B64;}
	.st25{fill:url(#SVGID_20_);}
	.st26{fill:url(#SVGID_21_);}
	.st27{fill:url(#SVGID_22_);}
	.st28{fill:url(#SVGID_23_);}
	.st29{fill:url(#SVGID_24_);}
	.st30{filter:url(#Adobe_OpacityMaskFilter);}
	.st31{filter:url(#Adobe_OpacityMaskFilter_1_);}
	.st32{mask:url(#SVGID_25_);fill:url(#SVGID_26_);}
	.st33{fill:url(#SVGID_27_);}
	.st34{filter:url(#Adobe_OpacityMaskFilter_2_);}
	.st35{filter:url(#Adobe_OpacityMaskFilter_3_);}
	.st36{mask:url(#SVGID_28_);fill:url(#SVGID_29_);}
	.st37{fill:url(#SVGID_30_);}
	.st38{fill:url(#SVGID_31_);}
	.st39{fill:url(#SVGID_32_);}
	.st40{fill:url(#SVGID_33_);}
	.st41{fill:url(#SVGID_34_);}
	.st42{fill:url(#SVGID_35_);}
	.st43{fill:url(#SVGID_36_);}
	.st44{fill:url(#SVGID_37_);}
	.st45{fill:url(#SVGID_38_);}
	.st46{fill:url(#SVGID_39_);}
	.st47{fill:url(#SVGID_40_);}
	.st48{fill:url(#SVGID_41_);}
	.st49{fill:url(#SVGID_42_);}
	.st50{fill:url(#SVGID_43_);}
	.st51{fill:url(#SVGID_44_);}
	.st52{fill:url(#SVGID_45_);}
	.st53{fill:url(#SVGID_46_);}
	.st54{fill:url(#SVGID_47_);}
	.st55{fill:url(#SVGID_48_);}
	.st56{fill:url(#SVGID_49_);}
	.st57{fill:url(#SVGID_50_);}
	.st58{fill:url(#SVGID_51_);}
	.st59{fill:url(#SVGID_52_);}
	.st60{fill:#333364;}
	.st61{fill:#41417B;}
	.st62{fill:url(#SVGID_53_);}
	.st63{fill:url(#SVGID_54_);}
	.st64{fill:url(#SVGID_55_);}
	.st65{fill:url(#SVGID_56_);}
	.st66{fill:url(#SVGID_57_);}
	.st67{fill:url(#SVGID_58_);}
	.st68{fill:url(#SVGID_59_);}
	.st69{fill:url(#SVGID_60_);}
	.st70{fill:url(#SVGID_61_);}
	.st71{fill:url(#SVGID_62_);}
</style>
<rect y="-2" width="1366" height="772"/>
<g>
	<g>
		<g>
			<polygon class="st0" points="1164.77,352.65 1164.77,430.76 1169.74,430.76 1212.29,430.76 1212.29,352.65 1169.74,352.65 			"/>
			<polygon class="st0" points="1224.7,352.65 1224.7,430.76 1229.67,430.76 1272.22,430.76 1272.22,352.65 1229.67,352.65 			"/>
			<polygon class="st0" points="1284.62,352.65 1284.62,430.76 1289.59,430.76 1332.14,430.76 1332.14,352.65 1289.59,352.65 			"/>
		</g>
		<g>
			<polygon class="st0" points="1164.77,263.09 1164.77,341.19 1169.74,341.19 1212.29,341.19 1212.29,263.09 1169.74,263.09 			"/>
			<polygon class="st0" points="1224.7,263.09 1224.7,341.19 1229.67,341.19 1272.22,341.19 1272.22,263.09 1229.67,263.09 			"/>
			<polygon class="st0" points="1284.62,263.09 1284.62,341.19 1289.59,341.19 1332.14,341.19 1332.14,263.09 1289.59,263.09 			"/>
		</g>
		<g>
			<polygon class="st0" points="1164.77,173.52 1164.77,251.62 1169.74,251.62 1212.29,251.62 1212.29,173.52 1169.74,173.52 			"/>
			<polygon class="st0" points="1224.7,173.52 1224.7,251.62 1229.67,251.62 1272.22,251.62 1272.22,173.52 1229.67,173.52 			"/>
			<polygon class="st0" points="1284.62,173.52 1284.62,251.62 1289.59,251.62 1332.14,251.62 1332.14,173.52 1289.59,173.52 			"/>
		</g>
	</g>
	<g>
		<g>
			<linearGradient id="SVGID_1_" gradientUnits="userSpaceOnUse" x1="984.4567" y1="622.075" x2="984.4567" y2="470.0482">
				<stop  offset="0" style="stop-color:#363669"/>
				<stop  offset="1" style="stop-color:#333364"/>
			</linearGradient>
			<path class="st1" d="M1047.23,600.73l-51.07-19.36V470.05h-23.41v111.32l-51.07,19.36c-4.19,1.59-6.74,5.38-6.3,9.39l1.29,11.96
				h9.73l1.49-8.95l56.57-9.34l56.57,9.34l1.49,8.95h9.73l1.29-11.96C1053.97,606.11,1051.42,602.32,1047.23,600.73z"/>
			<g>
				<g>
					<ellipse class="st2" cx="921.44" cy="622.08" rx="11.57" ry="10.2"/>
					<linearGradient id="SVGID_2_" gradientUnits="userSpaceOnUse" x1="921.4368" y1="626.8429" x2="921.4368" y2="617.3071">
						<stop  offset="0" style="stop-color:#FCF7F5"/>
						<stop  offset="1" style="stop-color:#EEE7E5"/>
					</linearGradient>
					<ellipse class="st3" cx="921.44" cy="622.08" rx="5.41" ry="4.77"/>
				</g>
				<g>
					<ellipse class="st2" cx="1047.48" cy="622.08" rx="11.57" ry="10.2"/>
					<linearGradient id="SVGID_3_" gradientUnits="userSpaceOnUse" x1="1047.4767" y1="626.8429" x2="1047.4767" y2="617.3071">
						<stop  offset="0" style="stop-color:#FCF7F5"/>
						<stop  offset="1" style="stop-color:#EEE7E5"/>
					</linearGradient>
					<ellipse class="st4" cx="1047.48" cy="622.08" rx="5.41" ry="4.77"/>
				</g>
			</g>
		</g>
		<linearGradient id="SVGID_4_" gradientUnits="userSpaceOnUse" x1="977.9371" y1="521.176" x2="977.9371" y2="270.4681">
			<stop  offset="0" style="stop-color:#505087"/>
			<stop  offset="1" style="stop-color:#41417B"/>
		</linearGradient>
		<path class="st5" d="M1075.23,272.13l-33.82-1.59c-29.51-1.38-55.89,16.1-62.59,41.48l-39.65,150.05l-7,11.78
			c0,0-68.56,5.56-101.22,15.78l-0.6,6.3c-0.77,8.08,6.09,15.16,15.25,15.76c36.92,2.42,124.41,8.12,149.87,9.27
			c13.03,0.59,21.25,0.3,37.94-6.7c15.48-6.5,34.55-17.35,46.82-24.67c7.86-4.69,10.72-11.61,12.91-20.8l31.09-139.48
			C1131.53,300.97,1108.13,273.68,1075.23,272.13z M875.92,512.85c0.29,0.01,0.51,0.02,0.67,0.03
			C876.42,512.87,876.19,512.87,875.92,512.85z"/>
		<linearGradient id="SVGID_5_" gradientUnits="userSpaceOnUse" x1="975.833" y1="504.356" x2="975.833" y2="268.9108">
			<stop  offset="0" style="stop-color:#363669"/>
			<stop  offset="1" style="stop-color:#333364"/>
		</linearGradient>
		<path class="st6" d="M1062.69,270.57l-33.82-1.59c-29.51-1.38-55.89,16.1-62.59,41.48l-38.84,146.99l-5.4-0.54
			c0,0-15.06-3.5-47.71,6.72c-32.65,10.22-50.1,30.65-20.62,31.81c0,0,99.08,7.12,131.64,8.6c28.28,1.29,27.49-1.32,40.9-7.07
			l37.71-19.33c6.76-3.46,11.58-9.25,13.31-15.97l34.44-133.91C1118.99,299.42,1095.59,272.12,1062.69,270.57z M866.16,495.93
			c0.11,0,0.21,0.01,0.29,0.01C866.37,495.94,866.27,495.93,866.16,495.93z"/>
	</g>
	<g>
		<g>
			<linearGradient id="SVGID_6_" gradientUnits="userSpaceOnUse" x1="764.5994" y1="535.2976" x2="844.6677" y2="535.2976">
				<stop  offset="0" style="stop-color:#FFC59B"/>
				<stop  offset="1" style="stop-color:#FFB07A"/>
			</linearGradient>
			<path class="st7" d="M844.67,617.55c0,0-0.44-40.9-8.99-78.58c-4.06-17.91-10.91-29.61-16.98-36.96
				c12.97-2.22,23.35-4.95,23.35-4.95l-28.56-44l-28.8,10.63c-17.16,5.22-26.31,22.18-15.26,34.88l51.2,118.99H844.67z"/>
			<path class="st8" d="M882.87,427.89c-28.41,9.24-68.87,24.04-88.31,31.23c16.82,4.46,26.4,31.58,27.82,43.78
				c21.33-3.5,63.82-6.32,90.44-9.45c36.69-4.31,42.38-60.81,42.38-60.81L882.87,427.89z"/>
			<path class="st2" d="M855.82,630.3L855.82,630.3c-3.41-8.62-9.15-16.37-16.72-22.59l-1.49-1.23l-19.95,7.05l-3.86,11.59
				c-2.52,7.57-8.49,13.87-16.49,17.41l-12.52,5.54c-2.14,0.95-4.6,1.15-6.89,0.57l0,0c-2.86-0.72-5.9,0.5-7.15,2.88v0
				c-0.98,1.86-0.67,4.05,0.81,5.64h0c4.03,4.33,9.74,7.18,16.02,8l10.12,1.31c12.09,1.56,24.36-1.43,33.82-8.24l19.53-14.06
				C855.88,640.94,857.82,635.34,855.82,630.3z"/>
			<path class="st2" d="M819.79,620.4l-19.17-49.07c0,0,28.86-3.48,40.21-9.99c0,0,6.04,31.62,5.44,62.38L819.79,620.4z"/>
		</g>
		<g>
			<linearGradient id="SVGID_7_" gradientUnits="userSpaceOnUse" x1="876.9947" y1="538.8636" x2="954.4346" y2="538.8636">
				<stop  offset="0" style="stop-color:#FFC59B"/>
				<stop  offset="1" style="stop-color:#FFB07A"/>
			</linearGradient>
			<path class="st9" d="M954.43,499.73l-28.56-44l-28.8,10.63c-14.57,4.43-23.36,17.33-18.92,28.89l3.56,119.73l22.71,7
				c0,0,14.89-38.74,20.93-76.79c2.81-17.73,0.86-30.61-2.02-39.31C939.67,503.62,954.43,499.73,954.43,499.73z"/>
			<path class="st10" d="M949.92,432.01c-7.85,14.08-22.15,22.97-41.58,30.16c16.82,4.46,26.4,31.58,27.82,43.78
				c21.33-3.5,63.51-0.8,89.37-7.2c40.33-9.97,22.94-66.75,22.94-66.75H949.92z"/>
			<path class="st2" d="M918.57,629.88L918.57,629.88c-3.41-8.62-9.15-16.37-16.72-22.59l-1.49-1.23l-19.95,7.05l-3.86,11.59
				c-2.52,7.57-8.49,13.87-16.49,17.41l-12.52,5.54c-2.14,0.95-4.6,1.15-6.89,0.57c-2.86-0.72-5.9,0.5-7.15,2.88v0
				c-0.98,1.86-0.67,4.05,0.81,5.64c4.03,4.33,9.74,7.18,16.02,8l10.12,1.31c12.09,1.56,24.36-1.43,33.82-8.24l19.53-14.06v0
				C918.63,640.52,920.56,634.92,918.57,629.88z"/>
			<path class="st2" d="M879.84,613.24l0.28-51.9c0,0,28.54,5.12,41.7,2.28c0,0-6.14,31.6-18.22,60.47L879.84,613.24z"/>
		</g>
		<g>
			<linearGradient id="SVGID_8_" gradientUnits="userSpaceOnUse" x1="877.975" y1="334.8138" x2="946.9224" y2="334.8138">
				<stop  offset="0" style="stop-color:#7A3C4A"/>
				<stop  offset="1" style="stop-color:#A0424F"/>
			</linearGradient>
			<path class="st11" d="M927.26,276.7c0,0-25.54,19.44-49.29,90.83l20.49,25.39c0,0,27.89-25.23,43.88-46.76
				C958.34,324.64,927.26,276.7,927.26,276.7z"/>
			<linearGradient id="SVGID_9_" gradientUnits="userSpaceOnUse" x1="968.6483" y1="443.2369" x2="968.6483" y2="256.1395">
				<stop  offset="0" style="stop-color:#FCF7F5"/>
				<stop  offset="1" style="stop-color:#EEE7E5"/>
			</linearGradient>
			<polygon class="st12" points="958.95,268.54 927.26,276.7 922.22,334.45 900.36,443.24 1036.78,443.17 1033.31,304.38 
				1036.94,276.7 991.12,256.14 			"/>
			<g>
				<g>
					<linearGradient id="SVGID_10_" gradientUnits="userSpaceOnUse" x1="866.4523" y1="442.5638" x2="866.4523" y2="442.5638">
						<stop  offset="0" style="stop-color:#F05E5D"/>
						<stop  offset="1" style="stop-color:#D44A58"/>
					</linearGradient>
					<polygon class="st13" points="866.45,442.56 866.45,442.56 866.45,442.56 					"/>
					<linearGradient id="SVGID_11_" gradientUnits="userSpaceOnUse" x1="911.7381" y1="450.9145" x2="911.7381" y2="266.728">
						<stop  offset="0" style="stop-color:#F05E5D"/>
						<stop  offset="1" style="stop-color:#D44A58"/>
					</linearGradient>
					<path class="st14" d="M927.26,276.7L895.6,423.73l-29.15,18.83c18.04-1.89,36.32,0.82,52.66,7.83l1.21,0.52v0
						c4.28-43.07,11.43-85.88,21.41-128.2l6.79-28.78l8.5-27.21L927.26,276.7z"/>
				</g>
				<linearGradient id="SVGID_12_" gradientUnits="userSpaceOnUse" x1="1002.5767" y1="487.5224" x2="1002.5767" y2="256.1394">
					<stop  offset="0" style="stop-color:#F05E5D"/>
					<stop  offset="1" style="stop-color:#D44A58"/>
				</linearGradient>
				<path class="st15" d="M1058.66,318.32l-21.72-41.62l-45.81-20.56l1.52,8.87l-10.24,14.76l1.43,13.76l-2,4.4
					c-5.15,11.31-9.42,22.92-12.68,34.77c-10.64,38.75-18.25,78.1-22.77,117.79l-0.05,0.43l0,0c23.22,1.89,44.88,11.14,60.95,26.05
					l11.26,10.44c31.17,2.08,40.29-24.29,40.29-24.29L1058.66,318.32z"/>
			</g>
			<linearGradient id="SVGID_13_" gradientUnits="userSpaceOnUse" x1="933.7514" y1="274.6745" x2="957.7239" y2="274.6745">
				<stop  offset="0" style="stop-color:#7A3C4A"/>
				<stop  offset="1" style="stop-color:#A0424F"/>
			</linearGradient>
			<polygon class="st16" points="935.9,275.77 933.75,287.87 952.63,274.12 957.72,261.48 			"/>
			<linearGradient id="SVGID_14_" gradientUnits="userSpaceOnUse" x1="947.399" y1="293.9357" x2="947.399" y2="261.4801">
				<stop  offset="0" style="stop-color:#BF434F"/>
				<stop  offset="1" style="stop-color:#BD4652"/>
			</linearGradient>
			<path class="st17" d="M957.72,261.48l-21.83,14.29v0c5.5,4.02,9.55,9.38,11.66,15.4l0.97,2.77l10.38-21.14L957.72,261.48z"/>
			<linearGradient id="SVGID_15_" gradientUnits="userSpaceOnUse" x1="979.5994" y1="275.8853" x2="979.5994" y2="226.3685">
				<stop  offset="0" style="stop-color:#FFC59B"/>
				<stop  offset="1" style="stop-color:#FFB07A"/>
			</linearGradient>
			<polygon class="st18" points="956.62,249.79 959.04,274.85 1002.58,275.89 985.79,226.37 			"/>
			<g>
				<g>
					
						<linearGradient id="SVGID_16_" gradientUnits="userSpaceOnUse" x1="-19.2547" y1="233.9935" x2="-2.7759" y2="233.9935" gradientTransform="matrix(-0.6723 -0.07 -0.0857 0.8228 937.7066 26.8859)">
						<stop  offset="0" style="stop-color:#FFB07A"/>
						<stop  offset="1" style="stop-color:#FFC59B"/>
					</linearGradient>
					<path class="st19" d="M921.56,212.97L921.56,212.97c2.38-2.38,6.08-2.03,7.85,0.73l0,0c1.33,2.08,1.71,4.72,1.05,7.21
						l-1.52,5.73c-0.31,1.16-1.18,2.11-2.27,2.38c-1.34,0.32-2.65-0.38-3.18-1.67l-3.26-7.86
						C919.32,217.31,919.86,214.67,921.56,212.97z"/>
				</g>
				<linearGradient id="SVGID_17_" gradientUnits="userSpaceOnUse" x1="920.5282" y1="201.0112" x2="930.7842" y2="201.0112">
					<stop  offset="0" style="stop-color:#7A3C4A"/>
					<stop  offset="1" style="stop-color:#A0424F"/>
				</linearGradient>
				<path class="st20" d="M923.47,188.7c0,0-7.94,12.31,2.28,24.61l5.04-21.4L923.47,188.7z"/>
				<g>
					
						<linearGradient id="SVGID_18_" gradientUnits="userSpaceOnUse" x1="924.4816" y1="215.5817" x2="989.537" y2="215.5817" gradientTransform="matrix(1 -1.000000e-03 1.000000e-03 1 -0.0888 0.6168)">
						<stop  offset="0" style="stop-color:#FFD6B9"/>
						<stop  offset="1" style="stop-color:#FFC298"/>
					</linearGradient>
					<path class="st21" d="M928.72,246.8c7.84,9.02,21.58,12.37,33.49,8.03c0.24-0.09,0.48-0.18,0.7-0.27l0,0
						c4.48-1.78,8.4-4.51,11.4-7.95l9.95-11.4l5.02-28.96c2.92-16.87-11.67-32.14-31.02-32.46l0,0
						c-17.82-0.29-32.47,12.31-32.58,28.02l0,0.15l-1.04,33.74C924.51,239.7,925.95,243.62,928.72,246.8L928.72,246.8z"/>
					<linearGradient id="SVGID_19_" gradientUnits="userSpaceOnUse" x1="953.1164" y1="265.4684" x2="953.1164" y2="220.2238">
						<stop  offset="0" style="stop-color:#BF434F"/>
						<stop  offset="1" style="stop-color:#BD4652"/>
					</linearGradient>
					<path class="st22" d="M942.12,227.13c0,0-3.78,0.04-9.82,2.76c-6.04,2.73-7.45-1.06-7.45-1.06s-5.25,6.44-2.02,16.86
						c3.01,9.73,17.74,19.24,17.74,19.24s15.53,3.48,29.69-7.22c14.17-10.7,14.2-23.64,14.2-23.64s-4.32-3.2-4.75-7.91
						c-0.43-4.71,0.6-5.94,0.6-5.94s-5.32,6.18-13.05,9.48C959.53,233,949.39,226.94,942.12,227.13z"/>
					<g>
						<path class="st2" d="M936.61,216.66c0,1.42-1.3,2.57-2.91,2.57c-1.61,0-2.91-1.15-2.91-2.57c0-1.42,1.3-2.57,2.91-2.57
							C935.3,214.09,936.61,215.24,936.61,216.66z"/>
						<path class="st23" d="M933.37,216.32c0,0.52-0.48,0.95-1.07,0.95s-1.07-0.42-1.07-0.95c0-0.52,0.48-0.95,1.07-0.95
							S933.37,215.8,933.37,216.32z"/>
					</g>
					<g>
						<path class="st2" d="M959.51,216.66c0,1.42-1.3,2.57-2.91,2.57c-1.61,0-2.91-1.15-2.91-2.57c0-1.42,1.3-2.57,2.91-2.57
							C958.21,214.09,959.51,215.24,959.51,216.66z"/>
						<path class="st23" d="M956.28,216.32c0,0.52-0.48,0.95-1.07,0.95s-1.07-0.42-1.07-0.95c0-0.52,0.48-0.95,1.07-0.95
							S956.28,215.8,956.28,216.32z"/>
					</g>
					<g>
						<path class="st23" d="M935.6,237.39c-0.03-0.01-0.07-0.02-0.09-0.02C935.53,237.37,935.56,237.38,935.6,237.39z"/>
						<polygon class="st23" points="957.47,235.74 957.47,235.74 957.47,235.74 						"/>
					</g>
					<g>
						<g>
							<path class="st2" d="M934.28,235.02c1.9,6.11,5.76,8.11,10.36,8.38c6.16,0.36,11.07-3.95,12.89-6.63l0,0
								c1.08-1.59,1.54-2.87,1.54-2.87C947.72,236.11,935.98,235.18,934.28,235.02z"/>
							<polygon class="st24" points="957.53,236.77 957.53,236.77 957.53,236.77 							"/>
						</g>
						<linearGradient id="SVGID_20_" gradientUnits="userSpaceOnUse" x1="938.6925" y1="241.1363" x2="955.2319" y2="241.1363">
							<stop  offset="0" style="stop-color:#FFD6B9"/>
							<stop  offset="1" style="stop-color:#FFC298"/>
						</linearGradient>
						<path class="st25" d="M946.59,240.09c-4.11-1.07-6.75,0.52-7.9,1.48c1.72,1.17,3.75,1.7,5.94,1.82
							c4.39,0.25,8.14-1.86,10.6-4.06C952.37,238.59,948.32,238.61,946.59,240.09z"/>
						<path class="st23" d="M934.28,235.02c0.25,0.82,0.55,1.56,0.87,2.24c3.01,0.62,9.99,1.36,22.56-0.75
							c0.96-1.47,1.37-2.61,1.37-2.61C947.72,236.11,935.98,235.18,934.28,235.02z"/>
					</g>
				</g>
				<linearGradient id="SVGID_21_" gradientUnits="userSpaceOnUse" x1="943.2617" y1="248.4813" x2="952.3741" y2="248.4813">
					<stop  offset="0" style="stop-color:#7A3C4A"/>
					<stop  offset="1" style="stop-color:#A0424F"/>
				</linearGradient>
				<path class="st26" d="M943.26,247.45c0,0,3.82,1.03,9.11-0.5c0,0-0.8,2.59-3.87,3.03C945.43,250.41,943.26,247.45,943.26,247.45
					z"/>
				<linearGradient id="SVGID_22_" gradientUnits="userSpaceOnUse" x1="941.4247" y1="226.3685" x2="941.4247" y2="207.0883">
					<stop  offset="0" style="stop-color:#FFC59B"/>
					<stop  offset="1" style="stop-color:#FFB07A"/>
				</linearGradient>
				<path class="st27" d="M939.15,207.09c0,0,2.96,3.4,1.83,8.77c-1.13,5.37-4.8,10.51-4.8,10.51h9.74
					C945.92,226.37,949.97,208.26,939.15,207.09z"/>
				<linearGradient id="SVGID_23_" gradientUnits="userSpaceOnUse" x1="941.0539" y1="230.1033" x2="941.0539" y2="226.3685">
					<stop  offset="0" style="stop-color:#FFC59B"/>
					<stop  offset="1" style="stop-color:#FFB07A"/>
				</linearGradient>
				<path class="st28" d="M936.18,226.37c0,0,2.79,3.79,6.87,3.73c1.39,0,2.58-0.9,2.76-2.11c0.07-0.47,0.12-1.01,0.12-1.62H936.18z
					"/>
				<path class="st2" d="M928.66,210.76l-1.19-1.07c0.17-0.15,4.28-3.66,9.17-3.11l-0.21,1.49
					C932.35,207.61,928.7,210.73,928.66,210.76z"/>
				<path class="st2" d="M966.02,210.95c-4.77-4.09-12.64-2.97-12.72-2.95l-0.29-1.48c0.36-0.05,8.79-1.27,14.19,3.36L966.02,210.95
					z"/>
				<linearGradient id="SVGID_24_" gradientUnits="userSpaceOnUse" x1="955.9891" y1="230.8542" x2="955.9891" y2="169.5591">
					<stop  offset="0" style="stop-color:#BF434F"/>
					<stop  offset="1" style="stop-color:#BD4652"/>
				</linearGradient>
				<path class="st29" d="M993.37,190.98c-4.91-12.99-16.46-16.41-22.04-15.65c-22.18-13.38-39.23,0.2-45.68,3.91
					c-4.28,2.46-8.63-0.57-8.63-0.57c0,7.76,5.97,14.86,19.58,17.04c16.55,2.65,28.72-2.17,28.72-2.17
					c19.13,6.14,10.66,30.77,10.66,30.77l8.48,6.55C984.46,230.85,999.81,208.01,993.37,190.98z"/>
				<g>
					<defs>
						<filter id="Adobe_OpacityMaskFilter" filterUnits="userSpaceOnUse" x="918.61" y="217.27" width="19.77" height="9.05">
							<feFlood  style="flood-color:white;flood-opacity:1" result="back"/>
							<feBlend  in="SourceGraphic" in2="back" mode="normal"/>
						</filter>
					</defs>
					<mask maskUnits="userSpaceOnUse" x="918.61" y="217.27" width="19.77" height="9.05" id="SVGID_25_">
						<g class="st30">
							<defs>
								<filter id="Adobe_OpacityMaskFilter_1_" filterUnits="userSpaceOnUse" x="918.61" y="217.27" width="19.77" height="9.05">
									<feFlood  style="flood-color:white;flood-opacity:1" result="back"/>
									<feBlend  in="SourceGraphic" in2="back" mode="normal"/>
								</filter>
							</defs>
							<mask maskUnits="userSpaceOnUse" x="918.61" y="217.27" width="19.77" height="9.05" id="SVGID_25_">
								<g class="st31">
								</g>
							</mask>
							<linearGradient id="SVGID_26_" gradientUnits="userSpaceOnUse" x1="928.496" y1="226.3163" x2="928.496" y2="217.2695">
								<stop  offset="0" style="stop-color:#FFFFFF"/>
								<stop  offset="1" style="stop-color:#000000"/>
							</linearGradient>
							<path class="st32" d="M918.79,218.99l-0.17,2.23c-0.15,2.03,1.52,3.81,3.81,4.04l9.9,1.03c2.1,0.22,4.07-0.94,4.66-2.73
								l1.3-3.94c0.39-1.18-0.61-2.35-2-2.35h-15.42C919.77,217.27,918.86,218.02,918.79,218.99z"/>
						</g>
					</mask>
					<linearGradient id="SVGID_27_" gradientUnits="userSpaceOnUse" x1="928.496" y1="226.3163" x2="928.496" y2="217.2695">
						<stop  offset="0" style="stop-color:#FFFFFF"/>
						<stop  offset="1" style="stop-color:#FFFFFF"/>
					</linearGradient>
					<path class="st33" d="M918.79,218.99l-0.17,2.23c-0.15,2.03,1.52,3.81,3.81,4.04l9.9,1.03c2.1,0.22,4.07-0.94,4.66-2.73
						l1.3-3.94c0.39-1.18-0.61-2.35-2-2.35h-15.42C919.77,217.27,918.86,218.02,918.79,218.99z"/>
					<defs>
						<filter id="Adobe_OpacityMaskFilter_2_" filterUnits="userSpaceOnUse" x="948.14" y="217.27" width="19.77" height="9.05">
							<feFlood  style="flood-color:white;flood-opacity:1" result="back"/>
							<feBlend  in="SourceGraphic" in2="back" mode="normal"/>
						</filter>
					</defs>
					<mask maskUnits="userSpaceOnUse" x="948.14" y="217.27" width="19.77" height="9.05" id="SVGID_28_">
						<g class="st34">
							<defs>
								<filter id="Adobe_OpacityMaskFilter_3_" filterUnits="userSpaceOnUse" x="948.14" y="217.27" width="19.77" height="9.05">
									<feFlood  style="flood-color:white;flood-opacity:1" result="back"/>
									<feBlend  in="SourceGraphic" in2="back" mode="normal"/>
								</filter>
							</defs>
							<mask maskUnits="userSpaceOnUse" x="948.14" y="217.27" width="19.77" height="9.05" id="SVGID_28_">
								<g class="st35">
								</g>
							</mask>
							<linearGradient id="SVGID_29_" gradientUnits="userSpaceOnUse" x1="958.0275" y1="226.3163" x2="958.0275" y2="217.2695">
								<stop  offset="0" style="stop-color:#FFFFFF"/>
								<stop  offset="1" style="stop-color:#000000"/>
							</linearGradient>
							<path class="st36" d="M948.32,218.99l-0.17,2.23c-0.15,2.03,1.52,3.81,3.81,4.04l9.9,1.03c2.1,0.22,4.07-0.94,4.66-2.73
								l1.3-3.94c0.39-1.18-0.61-2.35-2-2.35H950.4C949.3,217.27,948.39,218.02,948.32,218.99z"/>
						</g>
					</mask>
					<linearGradient id="SVGID_30_" gradientUnits="userSpaceOnUse" x1="958.0275" y1="226.3163" x2="958.0275" y2="217.2695">
						<stop  offset="0" style="stop-color:#FFFFFF"/>
						<stop  offset="1" style="stop-color:#D6E5FF"/>
					</linearGradient>
					<path class="st37" d="M948.32,218.99l-0.17,2.23c-0.15,2.03,1.52,3.81,3.81,4.04l9.9,1.03c2.1,0.22,4.07-0.94,4.66-2.73
						l1.3-3.94c0.39-1.18-0.61-2.35-2-2.35H950.4C949.3,217.27,948.39,218.02,948.32,218.99z"/>
				</g>
				<g>
					<path class="st2" d="M980.94,219.24l-13.24,1.86l0.46-1.39c0.21-0.65,0.07-1.34-0.39-1.88c-0.46-0.54-1.17-0.85-1.94-0.85
						H950.4c-1.27,0-2.33,0.88-2.42,2l-0.17,2.23c-0.01,0.17,0.13,0.31,0.32,0.32c0.19,0.01,0.35-0.11,0.36-0.28l0.17-2.23
						c0.06-0.81,0.83-1.44,1.74-1.44h15.43c0.55,0,1.06,0.22,1.39,0.61c0.33,0.39,0.43,0.88,0.28,1.35l-0.61,1.84
						c-0.03,0.1-0.01,0.21,0.07,0.28c0.07,0.07,0.16,0.1,0.26,0.1c0.02,0,0.04,0,0.05,0l13.77-1.93c0.19-0.03,0.31-0.18,0.28-0.34
						C981.3,219.32,981.13,219.21,980.94,219.24z"/>
					<path class="st2" d="M936.29,216.97h-15.42c-1.27,0-2.33,0.88-2.42,2l-0.17,2.23c-0.01,0.17,0.13,0.31,0.32,0.32
						c0.19,0.01,0.35-0.11,0.36-0.28l0.17-2.23c0.06-0.81,0.83-1.44,1.74-1.44h15.42c0.55,0,1.06,0.22,1.39,0.61
						c0.33,0.39,0.43,0.88,0.28,1.35l-0.72,2.17c-0.05,0.16,0.05,0.33,0.23,0.37c0.03,0.01,0.06,0.01,0.09,0.01
						c0.15,0,0.28-0.09,0.33-0.22l0.71-2.17c0.21-0.65,0.07-1.34-0.39-1.88S937.06,216.97,936.29,216.97z"/>
				</g>
				<path class="st2" d="M948.23,220.55c-0.04,0-0.07,0-0.11-0.02l-2.39-0.7c-2.48-0.73-5.21-0.48-7.47,0.68
					c-0.16,0.08-0.37,0.03-0.46-0.11c-0.09-0.14-0.04-0.33,0.12-0.41c2.43-1.25,5.36-1.51,8.03-0.73l2.39,0.7
					c0.18,0.05,0.27,0.22,0.21,0.38C948.5,220.47,948.37,220.55,948.23,220.55z"/>
				<g>
					
						<linearGradient id="SVGID_31_" gradientUnits="userSpaceOnUse" x1="990.6237" y1="177.7915" x2="1007.1486" y2="177.7915" gradientTransform="matrix(0.9774 0.2116 -0.2116 0.9774 49.31 -160.5579)">
						<stop  offset="0" style="stop-color:#FFC298"/>
						<stop  offset="1" style="stop-color:#FFD6B9"/>
					</linearGradient>
					<path class="st38" d="M996.14,217.62L996.14,217.62c-2.28-3.63-7.66-4.64-11.42-2.16h0c-2.83,1.86-4.58,4.73-4.79,7.84
						l-0.48,7.13c-0.1,1.45,0.69,2.87,2.12,3.59c1.74,0.88,3.91,0.58,5.25-0.69l8.2-7.73C997.31,223.43,997.76,220.21,996.14,217.62
						z"/>
					
						<linearGradient id="SVGID_32_" gradientUnits="userSpaceOnUse" x1="994.5155" y1="177.7925" x2="1003.5509" y2="177.7925" gradientTransform="matrix(0.9774 0.2116 -0.2116 0.9774 49.31 -160.5579)">
						<stop  offset="0" style="stop-color:#FFB07A"/>
						<stop  offset="1" style="stop-color:#FFC59B"/>
					</linearGradient>
					<path class="st39" d="M992.13,219.85c-1.55-1.67-4.36-1.89-6.31-0.6l0,0c-0.76,0.5-0.96,1.42-0.46,2.13l0.33,0.47
						c0.6,0.86,0.8,1.9,0.56,2.89c-0.31,1.27-1.32,2.33-2.69,2.81l-0.72,0.26l-0.01,0.22c-0.06,0.93,0.54,1.79,1.51,2.16
						c0.97,0.37,2.09,0.16,2.82-0.52l4.8-4.53C993.47,223.69,993.6,221.44,992.13,219.85z"/>
				</g>
			</g>
			<path class="st23" d="M958.77,272.62c0,0,9.03,4.08,34.5-1.79c2.7-0.62-0.1,8.65-2.7,9.56c-21.21,7.47-35.88,0.97-35.88,0.97
				L958.77,272.62z"/>
			<linearGradient id="SVGID_33_" gradientUnits="userSpaceOnUse" x1="982.397" y1="273.2748" x2="999.1204" y2="273.2748">
				<stop  offset="0" style="stop-color:#7A3C4A"/>
				<stop  offset="1" style="stop-color:#A0424F"/>
			</linearGradient>
			<polygon class="st40" points="994.95,253.02 999.12,270.47 983.83,293.53 982.4,279.77 			"/>
			<linearGradient id="SVGID_34_" gradientUnits="userSpaceOnUse" x1="993.1644" y1="287.1347" x2="993.1644" y2="248.0737">
				<stop  offset="0" style="stop-color:#BF434F"/>
				<stop  offset="1" style="stop-color:#BD4652"/>
			</linearGradient>
			<path class="st41" d="M1001.57,263.98c-0.61-5.95-3.45-11.55-8.09-15.91c0.95,3.21,0.69,6.61-0.75,9.67l-10.34,22.03
				c7.81-1.09,15.71,1.45,20.9,6.72l0.64,0.65L1001.57,263.98z"/>
			<linearGradient id="SVGID_35_" gradientUnits="userSpaceOnUse" x1="967.8001" y1="343.2834" x2="1058.8369" y2="343.2834">
				<stop  offset="0" style="stop-color:#7A3C4A"/>
				<stop  offset="1" style="stop-color:#A0424F"/>
			</linearGradient>
			<path class="st42" d="M1036.94,276.7c-22.87,14.57-69.14,108.44-69.14,108.44l25.47,24.72c0,0,0,0,47.67-48.55
				C1083.42,318.05,1036.94,276.7,1036.94,276.7z"/>
			<linearGradient id="SVGID_36_" gradientUnits="userSpaceOnUse" x1="903.4415" y1="401.6194" x2="993.8627" y2="401.6194">
				<stop  offset="0" style="stop-color:#7A3C4A"/>
				<stop  offset="1" style="stop-color:#A0424F"/>
			</linearGradient>
			<path class="st43" d="M973.98,384.61c-25.59-1.68-50.18,16.84-70.54,23.6c0,0,2.36,10.01,5.55,10.15
				c57.75,2.59,84.28-8.49,84.28-8.49S999.12,386.26,973.98,384.61z"/>
			<g>
				<linearGradient id="SVGID_37_" gradientUnits="userSpaceOnUse" x1="822.8955" y1="406.4553" x2="822.971" y2="406.4553">
					<stop  offset="0" style="stop-color:#7A3C4A"/>
					<stop  offset="1" style="stop-color:#A0424F"/>
				</linearGradient>
				<path class="st44" d="M822.9,406.45c0.01,0.04,0.04,0.03,0.08,0.01C822.92,406.43,822.89,406.43,822.9,406.45z"/>
				<linearGradient id="SVGID_38_" gradientUnits="userSpaceOnUse" x1="812.5497" y1="390.5617" x2="899.0039" y2="390.5617">
					<stop  offset="0" style="stop-color:#7A3C4A"/>
					<stop  offset="1" style="stop-color:#A0424F"/>
				</linearGradient>
				<path class="st45" d="M877.97,367.54c-9.97,0-41.64,10.7-65.43,42.91c-0.04,0.06,15.98,3.44,18.18,3.12
					c31.53-4.59,67.73-20.64,67.73-20.64S904.24,367.54,877.97,367.54z"/>
			</g>
			<g>
				<linearGradient id="SVGID_39_" gradientUnits="userSpaceOnUse" x1="792.2694" y1="408.3962" x2="805.4445" y2="408.3962">
					<stop  offset="0" style="stop-color:#FFC59B"/>
					<stop  offset="1" style="stop-color:#FFB07A"/>
				</linearGradient>
				<path class="st46" d="M800.97,404.71c-3.44-0.36-8.35,4.95-8.35,4.95s-1.54,1.96,1.9,2.39c3.44,0.42,5.66-2.39,5.66-2.39h5.27
					C805.44,409.67,804.41,405.08,800.97,404.71z"/>
				<linearGradient id="SVGID_40_" gradientUnits="userSpaceOnUse" x1="797.3037" y1="408.978" x2="812.5498" y2="408.978">
					<stop  offset="0" style="stop-color:#FFC59B"/>
					<stop  offset="1" style="stop-color:#FFB07A"/>
				</linearGradient>
				<path class="st47" d="M807.37,404.72c-3.99-0.42-9.67,5.73-9.67,5.73s-1.79,2.27,2.19,2.76c3.98,0.49,6.55-2.76,6.55-2.76h6.1
					C812.55,410.45,811.36,405.14,807.37,404.72z"/>
				<linearGradient id="SVGID_41_" gradientUnits="userSpaceOnUse" x1="804.9268" y1="408.978" x2="820.1729" y2="408.978">
					<stop  offset="0" style="stop-color:#FFC59B"/>
					<stop  offset="1" style="stop-color:#FFB07A"/>
				</linearGradient>
				<path class="st48" d="M814.99,404.72c-3.99-0.42-9.67,5.73-9.67,5.73s-1.79,2.27,2.19,2.76s6.55-2.76,6.55-2.76h6.1
					C820.17,410.45,818.98,405.14,814.99,404.72z"/>
				<linearGradient id="SVGID_42_" gradientUnits="userSpaceOnUse" x1="817.9723" y1="409.2874" x2="829.4114" y2="409.2874">
					<stop  offset="0" style="stop-color:#FFC59B"/>
					<stop  offset="1" style="stop-color:#FFB07A"/>
				</linearGradient>
				<path class="st49" d="M824.73,405.02c-4.57-0.29-6.72,6.91-6.72,6.91s-0.55,1.09,2.28,1.59c2.83,0.49,5.02-2.76,5.02-2.76h4.09
					C829.41,410.75,828.41,405.25,824.73,405.02z"/>
			</g>
			<g>
				<linearGradient id="SVGID_43_" gradientUnits="userSpaceOnUse" x1="868" y1="408.3962" x2="883.9396" y2="408.3962">
					<stop  offset="0" style="stop-color:#FFC59B"/>
					<stop  offset="1" style="stop-color:#FFB07A"/>
				</linearGradient>
				<path class="st50" d="M878.52,403.94c-4.17-0.44-10.11,5.99-10.11,5.99s-1.87,2.38,2.29,2.89c4.16,0.51,6.85-2.89,6.85-2.89
					h6.38C883.94,409.93,882.69,404.38,878.52,403.94z"/>
				<linearGradient id="SVGID_44_" gradientUnits="userSpaceOnUse" x1="877.975" y1="408.2014" x2="893.2211" y2="408.2014">
					<stop  offset="0" style="stop-color:#FFC59B"/>
					<stop  offset="1" style="stop-color:#FFB07A"/>
				</linearGradient>
				<path class="st51" d="M888.04,403.94c-3.99-0.42-9.67,5.73-9.67,5.73s-1.79,2.27,2.19,2.76c3.98,0.49,6.55-2.76,6.55-2.76h6.1
					C893.22,409.67,892.03,404.36,888.04,403.94z"/>
				<linearGradient id="SVGID_45_" gradientUnits="userSpaceOnUse" x1="885.598" y1="408.2014" x2="900.8442" y2="408.2014">
					<stop  offset="0" style="stop-color:#FFC59B"/>
					<stop  offset="1" style="stop-color:#FFB07A"/>
				</linearGradient>
				<path class="st52" d="M895.66,403.94c-3.99-0.42-9.67,5.73-9.67,5.73s-1.79,2.27,2.19,2.76c3.98,0.49,6.55-2.76,6.55-2.76h6.1
					C900.84,409.67,899.65,404.36,895.66,403.94z"/>
				<linearGradient id="SVGID_46_" gradientUnits="userSpaceOnUse" x1="898.6436" y1="408.2256" x2="909.3199" y2="408.2256">
					<stop  offset="0" style="stop-color:#FFC59B"/>
					<stop  offset="1" style="stop-color:#FFB07A"/>
				</linearGradient>
				<path class="st53" d="M904.95,404.24c-4.27-0.27-6.27,6.45-6.27,6.45s-0.51,1.02,2.13,1.48c2.64,0.46,4.69-2.58,4.69-2.58h3.82
					C909.32,409.59,908.39,404.46,904.95,404.24z"/>
			</g>
		</g>
	</g>
	<g>
		<g>
			<g>
				<linearGradient id="SVGID_47_" gradientUnits="userSpaceOnUse" x1="954.8922" y1="418.3532" x2="954.8922" y2="409.8632">
					<stop  offset="0" style="stop-color:#505087"/>
					<stop  offset="1" style="stop-color:#41417B"/>
				</linearGradient>
				<rect x="938.36" y="409.86" class="st54" width="33.07" height="8.49"/>
				<polygon class="st2" points="767.52,410.5 770.41,418.35 938.36,418.35 938.36,409.86 				"/>
			</g>
			<g>
				<linearGradient id="SVGID_48_" gradientUnits="userSpaceOnUse" x1="823.5684" y1="393.769" x2="823.5684" y2="299.6819">
					<stop  offset="0" style="stop-color:#505087"/>
					<stop  offset="1" style="stop-color:#41417B"/>
				</linearGradient>
				<polygon class="st55" points="813.97,299.68 822.9,393.77 833.16,393.77 824.24,299.68 				"/>
				<linearGradient id="SVGID_49_" gradientUnits="userSpaceOnUse" x1="746.0616" y1="393.769" x2="746.0616" y2="299.6819">
					<stop  offset="0" style="stop-color:#363669"/>
					<stop  offset="1" style="stop-color:#333364"/>
				</linearGradient>
				<polygon class="st56" points="669.22,301.16 683.29,393.77 822.9,393.77 813.97,299.68 				"/>
				<g>
					<linearGradient id="SVGID_50_" gradientUnits="userSpaceOnUse" x1="761.3787" y1="417.528" x2="761.3787" y2="372.6345">
						<stop  offset="0" style="stop-color:#505087"/>
						<stop  offset="1" style="stop-color:#41417B"/>
					</linearGradient>
					<polygon class="st57" points="759.72,372.63 755.24,417.53 767.52,417.53 763.26,372.63 					"/>
					<polygon class="st2" points="745.71,372.63 751.7,417.53 763.98,417.53 759.72,372.63 					"/>
				</g>
				<linearGradient id="SVGID_51_" gradientUnits="userSpaceOnUse" x1="753.8754" y1="386.2571" x2="753.8754" y2="353.6785">
					<stop  offset="0" style="stop-color:#505087"/>
					<stop  offset="1" style="stop-color:#41417B"/>
				</linearGradient>
				<polygon class="st58" points="727.27,354.19 732.14,386.26 780.48,386.26 777.39,353.68 				"/>
				<polygon class="st2" points="723.72,354.19 728.59,386.26 776.93,386.26 773.84,353.68 				"/>
				<linearGradient id="SVGID_52_" gradientUnits="userSpaceOnUse" x1="800.6852" y1="417.528" x2="800.6852" y2="408.5965">
					<stop  offset="0" style="stop-color:#505087"/>
					<stop  offset="1" style="stop-color:#41417B"/>
				</linearGradient>
				<rect x="787.4" y="408.6" class="st59" width="26.58" height="8.93"/>
				<polygon class="st2" points="722.04,409.26 724.36,417.53 787.4,417.53 787.4,408.6 				"/>
			</g>
		</g>
		<g>
			<g>
				<path class="st60" d="M589.23,662.27H572.6c-4.71,0-9.19-1.8-12.29-4.93c-3.1-3.13-4.51-7.29-3.86-11.41L588,443.77
					c0.16-1.01,1.13-1.76,2.29-1.76h127.38c0.8,0,1.54,0.36,1.96,0.96c0.42,0.6,0.47,1.34,0.12,1.97l-116,209.34
					C601.05,659.14,595.36,662.27,589.23,662.27z M592.3,446.09l-31.28,200.4c-0.46,2.95,0.55,5.94,2.77,8.18
					c2.22,2.25,5.43,3.54,8.82,3.54h16.63c4.37,0,8.44-2.24,10.36-5.71l114.38-206.41H592.3z"/>
				<path class="st60" d="M739.53,662.27c-6.64,0-12.68-3.22-15.76-8.41L599.64,445c-0.37-0.63-0.35-1.39,0.07-2
					c0.42-0.61,1.17-0.98,1.97-0.98h125.37c1.17,0,2.16,0.78,2.29,1.8l26.39,202.43c0.53,4.07-0.94,8.16-4.03,11.21
					C748.62,660.52,744.18,662.27,739.53,662.27z M605.5,446.09l122.36,205.89c2.28,3.84,6.76,6.23,11.68,6.23
					c3.33,0,6.51-1.26,8.73-3.45c2.22-2.19,3.27-5.12,2.89-8.04L725,446.09H605.5z"/>
			</g>
			<g>
				<path class="st61" d="M1037.25,662.27h-16.63c-4.71,0-9.19-1.8-12.29-4.93s-4.51-7.29-3.86-11.41l31.55-202.16
					c0.16-1.01,1.13-1.76,2.29-1.76h127.38c0.8,0,1.54,0.36,1.96,0.96c0.42,0.6,0.47,1.34,0.12,1.97l-116,209.34
					C1049.07,659.14,1043.38,662.27,1037.25,662.27z M1040.32,446.09l-31.28,200.4c-0.46,2.95,0.55,5.94,2.77,8.18
					c2.22,2.25,5.43,3.54,8.82,3.54h16.63c4.37,0,8.44-2.24,10.36-5.71L1162,446.09H1040.32z"/>
				<path class="st61" d="M1187.56,662.27h-1c-6.02,0-11.51-2.92-14.3-7.63L1047.66,445c-0.37-0.63-0.35-1.39,0.07-2
					c0.42-0.61,1.17-0.98,1.97-0.98h125.37c1.17,0,2.16,0.78,2.29,1.8l26.39,202.43c0.53,4.07-0.94,8.16-4.03,11.21
					C1196.64,660.52,1192.2,662.27,1187.56,662.27z M1053.52,446.09l122.82,206.67c2,3.36,5.91,5.45,10.22,5.45h1
					c3.33,0,6.51-1.26,8.73-3.45c2.22-2.19,3.27-5.12,2.89-8.04l-26.15-200.63H1053.52z"/>
			</g>
			<g>
				<linearGradient id="SVGID_53_" gradientUnits="userSpaceOnUse" x1="947.3553" y1="446.2065" x2="947.3553" y2="417.528">
					<stop  offset="0" style="stop-color:#505087"/>
					<stop  offset="1" style="stop-color:#41417B"/>
				</linearGradient>
				<polygon class="st62" points="710.12,417.53 1184.59,417.53 1184.59,446.21 712.69,446.21 				"/>
				<linearGradient id="SVGID_54_" gradientUnits="userSpaceOnUse" x1="816.5499" y1="446.2065" x2="816.5499" y2="417.528">
					<stop  offset="0" style="stop-color:#363669"/>
					<stop  offset="1" style="stop-color:#333364"/>
				</linearGradient>
				<polygon class="st63" points="579.32,417.53 1053.78,417.53 1053.78,446.21 581.88,446.21 				"/>
			</g>
		</g>
		<g>
			<rect x="1059.05" y="409.86" class="st2" width="98.82" height="8.49"/>
			<g>
				<g>
					<linearGradient id="SVGID_55_" gradientUnits="userSpaceOnUse" x1="1113.6843" y1="409.5737" x2="1113.6843" y2="367.5375">
						<stop  offset="0" style="stop-color:#BF434F"/>
						<stop  offset="1" style="stop-color:#BD4652"/>
					</linearGradient>
					<path class="st64" d="M1148.3,389.59l-0.94-1.19l2.37-3c2.13-2.69,2.31-6.22,0.48-9.07c-3.32-5.15-9.4-8.44-16.11-8.71l0,0
						c-2.19-0.09-4.38,0.15-6.48,0.7l-6.93,1.83l0,0c-7.38-3.36-16.11-3.5-23.62-0.37l-2.04,0.85l-4.85-1.65
						c-2.49-0.85-5.25-0.79-7.69,0.15l-0.95,0.37c-4.59,1.78-7,6.27-5.65,10.53v0v29.45l60.82,0.09l11.84-0.26l0.84-1.33
						c1.16-1.85,1.93-3.87,2.27-5.95C1152.36,397.65,1151.17,393.21,1148.3,389.59z"/>
					<polygon class="st23" points="1075.89,380.03 1075.89,409.48 1136.71,409.57 1139.57,378.24 					"/>
				</g>
				<linearGradient id="SVGID_56_" gradientUnits="userSpaceOnUse" x1="1107.3485" y1="400.7493" x2="1107.3485" y2="386.5894">
					<stop  offset="0" style="stop-color:#F05E5D"/>
					<stop  offset="1" style="stop-color:#D44A58"/>
				</linearGradient>
				<polygon class="st65" points="1075.89,390.56 1075.89,399.22 1137.52,400.75 1138.81,386.59 				"/>
			</g>
		</g>
		<g>
			<g>
				<polygon class="st23" points="658.04,417.53 625.02,417.53 619.4,355.07 663.66,355.07 				"/>
				<polygon class="st2" points="667.12,358.82 615.94,358.82 618.25,348.22 664.81,348.22 				"/>
			</g>
		</g>
	</g>
	<g>
		<g>
			<path class="st23" d="M1056.55,218.57h150.3c15.41,0,27.91-12.5,27.91-27.91v-38.12c0-15.41-12.5-27.91-27.91-27.91h-150.3
				c-15.41,0-27.91,12.5-27.91,27.91v38.12C1028.64,206.07,1041.14,218.57,1056.55,218.57z"/>
			<polygon class="st23" points="1092.97,212.28 1050.12,241.91 1050.12,210.07 			"/>
		</g>
		<g>
			<g>
				<linearGradient id="SVGID_57_" gradientUnits="userSpaceOnUse" x1="1144.1699" y1="153.9019" x2="1144.1699" y2="142.624">
					<stop  offset="0" style="stop-color:#FCF7F5"/>
					<stop  offset="1" style="stop-color:#EEE7E5"/>
				</linearGradient>
				<polygon class="st66" points="1215.38,153.9 1072.96,153.9 1072.96,142.62 1214.72,142.62 				"/>
			</g>
			<g>
				<linearGradient id="SVGID_58_" gradientUnits="userSpaceOnUse" x1="1144.1699" y1="177.2389" x2="1144.1699" y2="165.961">
					<stop  offset="0" style="stop-color:#FCF7F5"/>
					<stop  offset="1" style="stop-color:#EEE7E5"/>
				</linearGradient>
				<polygon class="st67" points="1215.38,177.24 1072.96,177.24 1072.96,165.96 1214.72,165.96 				"/>
			</g>
			<g>
				<linearGradient id="SVGID_59_" gradientUnits="userSpaceOnUse" x1="1056.7146" y1="200.576" x2="1056.7146" y2="189.2982">
					<stop  offset="0" style="stop-color:#BF434F"/>
					<stop  offset="1" style="stop-color:#BD4652"/>
				</linearGradient>
				<polygon class="st68" points="1065.41,200.58 1048.02,200.58 1048.02,189.3 1065.31,189.3 				"/>
				<linearGradient id="SVGID_60_" gradientUnits="userSpaceOnUse" x1="1144.1699" y1="200.576" x2="1144.1699" y2="189.2981">
					<stop  offset="0" style="stop-color:#FCF7F5"/>
					<stop  offset="1" style="stop-color:#EEE7E5"/>
				</linearGradient>
				<polygon class="st69" points="1215.38,200.58 1072.96,200.58 1072.96,189.3 1214.72,189.3 				"/>
			</g>
		</g>
		<linearGradient id="SVGID_61_" gradientUnits="userSpaceOnUse" x1="1056.7146" y1="153.873" x2="1056.7146" y2="142.653">
			<stop  offset="0" style="stop-color:#505087"/>
			<stop  offset="1" style="stop-color:#41417B"/>
		</linearGradient>
		<polygon class="st70" points="1054.89,153.87 1048.43,148.18 1051.04,145.88 1054.89,149.27 1062.39,142.65 1065,144.95 		"/>
		<linearGradient id="SVGID_62_" gradientUnits="userSpaceOnUse" x1="1056.7146" y1="177.21" x2="1056.7146" y2="165.9901">
			<stop  offset="0" style="stop-color:#505087"/>
			<stop  offset="1" style="stop-color:#41417B"/>
		</linearGradient>
		<polygon class="st71" points="1054.89,177.21 1048.43,171.52 1051.04,169.22 1054.89,172.61 1062.39,165.99 1065,168.29 		"/>
	</g>
</g>
</svg>
